<svg width="99" height="77" viewBox="0 0 99 77" fill="none" xmlns="http://www.w3.org/2000/svg">
<rect y="14" width="99" height="49" fill="url(#paint0_linear_192_16)" fill-opacity="0.34"/>
<rect x="2" y="16" width="95" height="45" stroke="#FF054C" stroke-opacity="0.54" stroke-width="4"/>
<path d="M48.2929 76.7071C48.6834 77.0976 49.3166 77.0976 49.7071 76.7071L56.0711 70.3431C56.4616 69.9526 56.4616 69.3195 56.0711 68.9289C55.6805 68.5384 55.0474 68.5384 54.6569 68.9289L49 74.5858L43.3431 68.9289C42.9526 68.5384 42.3195 68.5384 41.9289 68.9289C41.5384 69.3195 41.5384 69.9526 41.9289 70.3431L48.2929 76.7071ZM49 61L48 61L48 76L49 76L50 76L50 61L49 61Z" fill="#DA8BF7"/>
<path d="M49.6634 0.291038C49.2717 -0.0983971 48.6386 -0.0966335 48.2491 0.294977L41.9029 6.67664C41.5135 7.06825 41.5153 7.70141 41.9069 8.09085C42.2985 8.48028 42.9316 8.47852 43.3211 8.08691L48.9622 2.41432L54.6347 8.0554C55.0264 8.44483 55.6595 8.44307 56.049 8.05146C56.4384 7.65985 56.4366 7.02668 56.045 6.63725L49.6634 0.291038ZM49 16L50 15.9972L49.9582 0.997326L48.9582 1.00011L47.9582 1.0029L48 16.0028L49 16Z" fill="#DA8BF7"/>
<defs>
<linearGradient id="paint0_linear_192_16" x1="49.5" y1="14" x2="49.5" y2="63" gradientUnits="userSpaceOnUse">
<stop stop-color="#FF48CE"/>
<stop offset="1" stop-color="#17AEFF"/>
</linearGradient>
</defs>
</svg>
